{"accessors":[{"bufferView":0,"byteOffset":0,"componentType":5126,"count":279,"max":[11.0585,1.5,8],"min":[-11.0585,-1.5,-8],"normalized":false,"type":"VEC3"},{"bufferView":1,"byteOffset":0,"componentType":5126,"count":279,"max":[0.999993,0.000107,0.003999,1],"min":[-1,-1,-1,-1],"normalized":false,"type":"VEC4"},{"bufferView":2,"byteOffset":0,"componentType":5126,"count":279,"max":[1,1,1],"min":[-1,-1,-1],"normalized":false,"type":"VEC3"},{"bufferView":3,"byteOffset":0,"componentType":5126,"count":279,"max":[1,1],"min":[0,0],"normalized":false,"type":"VEC2"},{"bufferView":4,"byteOffset":0,"componentType":5125,"count":279,"max":[278],"min":[0],"normalized":false,"type":"SCALAR"},{"bufferView":5,"byteOffset":0,"componentType":5126,"count":120,"max":[4.9425,1.5,15.3795],"min":[-4.9425,-1.5,-15.3795],"normalized":false,"type":"VEC3"},{"bufferView":6,"byteOffset":0,"componentType":5126,"count":120,"max":[0.000183,0.000122,0.000504,1],"min":[-1,-1,-1,-1],"normalized":false,"type":"VEC4"},{"bufferView":7,"byteOffset":0,"componentType":5126,"count":120,"max":[1,1,1],"min":[-1,-1,-1],"normalized":false,"type":"VEC3"},{"bufferView":8,"byteOffset":0,"componentType":5126,"count":120,"max":[1,1],"min":[0,0],"normalized":false,"type":"VEC2"},{"bufferView":9,"byteOffset":0,"componentType":5125,"count":120,"max":[119],"min":[0],"normalized":false,"type":"SCALAR"},{"bufferView":10,"byteOffset":0,"componentType":5126,"count":123,"max":[13.2535,1.5,9.719],"min":[-13.2535,-1.5,-9.719],"normalized":false,"type":"VEC3"},{"bufferView":11,"byteOffset":0,"componentType":5126,"count":123,"max":[0.000031,0.007533,0.000076,1],"min":[-1,-1,-1,-1],"normalized":false,"type":"VEC4"},{"bufferView":12,"byteOffset":0,"componentType":5126,"count":123,"max":[1,1,1],"min":[-1,-1,-1],"normalized":false,"type":"VEC3"},{"bufferView":13,"byteOffset":0,"componentType":5126,"count":123,"max":[1,1],"min":[0,0],"normalized":false,"type":"VEC2"},{"bufferView":14,"byteOffset":0,"componentType":5125,"count":123,"max":[122],"min":[0],"normalized":false,"type":"SCALAR"},{"bufferView":15,"byteOffset":0,"componentType":5126,"count":102,"max":[6.7925,1.5,5.3285],"min":[-6.7925,-1.5,-5.3285],"normalized":false,"type":"VEC3"},{"bufferView":16,"byteOffset":0,"componentType":5126,"count":102,"max":[0.000031,0,0.000076,1],"min":[-1,-1,-1,-1],"normalized":false,"type":"VEC4"},{"bufferView":17,"byteOffset":0,"componentType":5126,"count":102,"max":[1,1,1],"min":[-1,-1,-1],"normalized":false,"type":"VEC3"},{"bufferView":18,"byteOffset":0,"componentType":5126,"count":102,"max":[1,1],"min":[0,0],"normalized":false,"type":"VEC2"},{"bufferView":19,"byteOffset":0,"componentType":5125,"count":102,"max":[101],"min":[0],"normalized":false,"type":"SCALAR"},{"bufferView":20,"byteOffset":0,"componentType":5126,"count":951,"max":[28.412006,4.499977,6],"min":[-35.865883,-1.5,-31.844667],"normalized":false,"type":"VEC3"},{"bufferView":21,"byteOffset":0,"componentType":5126,"count":951,"max":[0.999993,0.011842,1,1],"min":[-1,-1,-1,1],"normalized":false,"type":"VEC4"},{"bufferView":22,"byteOffset":0,"componentType":5126,"count":951,"max":[1,1,1],"min":[-1,-1,-1],"normalized":false,"type":"VEC3"},{"bufferView":23,"byteOffset":0,"componentType":5126,"count":951,"max":[1,1],"min":[0,0],"normalized":false,"type":"VEC2"},{"bufferView":24,"byteOffset":0,"componentType":5125,"count":951,"max":[950],"min":[0],"normalized":false,"type":"SCALAR"}],"asset":{"generator":"Godot Engine v4.2.2.stable.mono.official@15073afe3856abd2aa1622492fe50026c7d63dc1","version":"2.0"},"bufferViews":[{"buffer":0,"byteLength":3348,"byteOffset":0},{"buffer":0,"byteLength":4464,"byteOffset":3348},{"buffer":0,"byteLength":3348,"byteOffset":7812},{"buffer":0,"byteLength":2232,"byteOffset":11160},{"buffer":0,"byteLength":1116,"byteOffset":13392},{"buffer":0,"byteLength":1440,"byteOffset":14508},{"buffer":0,"byteLength":1920,"byteOffset":15948},{"buffer":0,"byteLength":1440,"byteOffset":17868},{"buffer":0,"byteLength":960,"byteOffset":19308},{"buffer":0,"byteLength":480,"byteOffset":20268},{"buffer":0,"byteLength":1476,"byteOffset":20748},{"buffer":0,"byteLength":1968,"byteOffset":22224},{"buffer":0,"byteLength":1476,"byteOffset":24192},{"buffer":0,"byteLength":984,"byteOffset":25668},{"buffer":0,"byteLength":492,"byteOffset":26652},{"buffer":0,"byteLength":1224,"byteOffset":27144},{"buffer":0,"byteLength":1632,"byteOffset":28368},{"buffer":0,"byteLength":1224,"byteOffset":30000},{"buffer":0,"byteLength":816,"byteOffset":31224},{"buffer":0,"byteLength":408,"byteOffset":32040},{"buffer":0,"byteLength":11412,"byteOffset":32448},{"buffer":0,"byteLength":15216,"byteOffset":43860},{"buffer":0,"byteLength":11412,"byteOffset":59076},{"buffer":0,"byteLength":7608,"byteOffset":70488},{"buffer":0,"byteLength":3804,"byteOffset":78096}],"buffers":[{"byteLength":81900,"uri":"main_level0.bin"}],"extensions":{"KHR_lights_punctual":{"lights":[{"color":[1,1,1],"intensity":1,"range":340282346638528859811704183484516925440,"type":"directional"}]}},"extensionsUsed":["GODOT_single_root","KHR_lights_punctual"],"materials":[{"extensions":{},"pbrMetallicRoughness":{"baseColorFactor":[0.99999988079071,0.99999988079071,0.99999988079071,1],"metallicFactor":0,"roughnessFactor":1}},{"extensions":{},"pbrMetallicRoughness":{"baseColorFactor":[0.99999988079071,0.99999988079071,0.99999988079071,1],"metallicFactor":0,"roughnessFactor":1}},{"extensions":{},"pbrMetallicRoughness":{"baseColorFactor":[0.99999988079071,0.99999988079071,0.99999988079071,1],"metallicFactor":0,"roughnessFactor":1}},{"extensions":{},"pbrMetallicRoughness":{"baseColorFactor":[0.99999988079071,0.99999988079071,0.99999988079071,1],"metallicFactor":0,"roughnessFactor":1}},{"extensions":{},"pbrMetallicRoughness":{"baseColorFactor":[0.99999988079071,0.99999988079071,0.99999988079071,1],"metallicFactor":0,"roughnessFactor":1}}],"meshes":[{"extras":{"targetNames":[]},"primitives":[{"attributes":{"NORMAL":2,"POSITION":0,"TANGENT":1,"TEXCOORD_0":3},"indices":4,"material":0,"mode":4}]},{"extras":{"targetNames":[]},"primitives":[{"attributes":{"NORMAL":7,"POSITION":5,"TANGENT":6,"TEXCOORD_0":8},"indices":9,"material":1,"mode":4}]},{"extras":{"targetNames":[]},"primitives":[{"attributes":{"NORMAL":12,"POSITION":10,"TANGENT":11,"TEXCOORD_0":13},"indices":14,"material":2,"mode":4}]},{"extras":{"targetNames":[]},"primitives":[{"attributes":{"NORMAL":17,"POSITION":15,"TANGENT":16,"TEXCOORD_0":18},"indices":19,"material":3,"mode":4}]},{"extras":{"targetNames":[]},"primitives":[{"attributes":{"NORMAL":22,"POSITION":20,"TANGENT":21,"TEXCOORD_0":23},"indices":24,"material":4,"mode":4}]}],"nodes":[{"children":[1,2,3,6,8,10,12,23],"extensions":{},"name":"MainLevel"},{"extensions":{},"name":"WorldEnvironment"},{"extensions":{"KHR_lights_punctual":{"light":0}},"name":"DirectionalLight3D","rotation":[-0.12941072881222,0.836515307426453,0.482963681221008,0.22414530813694]},{"children":[4,5],"extensions":{},"mesh":0,"name":"Overhang2","translation":[-20.11000061035156,1.5,10.9020004272461]},{"extensions":{},"name":"Corridor6","rotation":[-0,-0.70848160982132,0.000000000000000247104233488227,0.705729365348816],"scale":[0.999981284141541,0.999983489513397,1.00000214576721],"translation":[-5.12990188598633,-0.13915252685547,-5.6774525642395]},{"extensions":{},"name":"Overhang22","translation":[4.06991767883301,0.101896166801453,4.78172302246094]},{"children":[7],"extensions":{},"mesh":1,"name":"Overhang42","scale":[0.999952495098114,0.999952495098114,1],"translation":[27.4699993133545,1.5,-0.59399998188019]},{"extensions":{},"name":"Overhang5","translation":[-0.00222969055176,0.102259516716003,13.6565790176392]},{"children":[9],"extensions":{},"mesh":2,"name":"Overhang32","scale":[0.999967634677887,0.999967634677887,1],"translation":[1.37800002098083,1.5,-9.12600040435791]},{"extensions":{},"name":"Overhang43","rotation":[0.00375247350893915,-0,0.00000000000000000130734458587692,0.999992966651917],"scale":[0.999986946582794,0.999986946582794,1],"translation":[0.0249999761581421,0.144734501838684,0.369999885559082]},{"children":[11],"extensions":{},"mesh":3,"name":"Overhang24","scale":[0.999981284141541,0.999981284141541,1],"translation":[-25.07399940490723,1.5,-4.73372459411621]},{"extensions":{},"name":"Overhang33","translation":[-5.47764587402344,0.116061091423035,0]},{"children":[13],"extensions":{},"mesh":4,"name":"Room2","translation":[4,1.69503211975098,13]},{"children":[14,15,16,17,18,19,20,21,22],"extensions":{},"name":"CSGCombiner3D"},{"extensions":{},"name":"Room22","translation":[-24.11000061035156,1.5,-2.09800004959106]},{"extensions":{},"name":"Corridor","scale":[0.999987483024597,0.999987483024597,1],"translation":[-9.43337726593018,-0.25,0.528631210327148]},{"extensions":{},"name":"Corridor2","scale":[0.999978125095367,0.999978125095367,1],"translation":[14.632640838623,2.73975086212158,-23.21759605407715]},{"extensions":{},"name":"Corridor3","scale":[0.99998140335083,0.99998140335083,1],"translation":[-19.260986328125,-0.25,-17.55770111083984]},{"extensions":{},"name":"Corridor4","rotation":[-0,-0.70848155021667,0.000000000000000247097377815311,0.705729365348816],"scale":[0.999981284141541,0.999966442584991,0.999985158443451],"translation":[-29.25219345092773,-0.14473223686218,-8.64264106750488]},{"extensions":{},"name":"Corridor5","rotation":[-0,-0.70848155021667,0.000000000000000247097245466413,0.705729365348816],"scale":[0.999981284141541,0.999966204166412,0.999984920024872],"translation":[-11.27298831939697,2.74950408935547,-9.02499961853027]},{"extensions":{},"name":"Room3","scale":[0.999981343746185,0.999981343746185,1],"translation":[-29.07367324829102,1.5,-17.73566436767578]},{"extensions":{},"name":"Room4","scale":[0.999967694282532,0.999967694282532,1],"translation":[-2.62243580818176,1.5,-22.1257495880127]},{"extensions":{},"name":"Room5","scale":[0.999952554702759,0.999952554702759,1],"translation":[23.4696807861328,1.5,-13.5939826965332]},{"extensions":{},"name":"Sprite3D","scale":[2.40000009536743,2.40000009536743,2.40000009536743],"translation":[0.00000000000208164735449046,0.100000001490116,0.00000000000208164735449046]}],"scene":0,"scenes":[{"nodes":[0]}]}